<svg xmlns="http://www.w3.org/2000/svg" width="48" height="48" id="password"><g color="#000" font-family="sans-serif" font-weight="400"><path fill="#3a4747" style="line-height:normal;text-indent:0;text-align:start;text-decoration-line:none;text-decoration-style:solid;text-decoration-color:#000;text-transform:none;block-progression:tb;white-space:normal;isolation:auto;mix-blend-mode:normal;solid-color:#000;solid-opacity:1" d="M302.18 1540v-8.322c0-6.393-5.175-11.562-11.573-11.562h-1.059a.704.704 0 0 0-.26.053c-6.27.146-11.312 5.209-11.312 11.51v8.058l5.03.205v-8.752c0-3.692 2.974-6.647 6.706-6.647h.73c3.733 0 6.708 2.955 6.708 6.647v8.79z" overflow="visible" transform="translate(-266.078 -1518.615)"></path><path fill="#ffc107" style="line-height:normal;text-indent:0;text-align:start;text-decoration-line:none;text-decoration-style:solid;text-decoration-color:#000;text-transform:none;block-progression:tb;white-space:normal;isolation:auto;mix-blend-mode:normal;solid-color:#000;solid-opacity:1" d="M303.851 1565.116c1.836 0 3.338-1.5 3.338-3.336v-18.973a3.346 3.346 0 0 0-3.338-3.336h-27.547a3.346 3.346 0 0 0-3.338 3.336v18.973a3.346 3.346 0 0 0 3.338 3.336z" overflow="visible" transform="translate(-266.078 -1518.615)"></path><path fill="#3a4747" style="line-height:normal;text-indent:0;text-align:start;text-decoration-line:none;text-decoration-style:solid;text-decoration-color:#000;text-transform:none;block-progression:tb;white-space:normal;isolation:auto;mix-blend-mode:normal;solid-color:#000;solid-opacity:1" d="M290.078 1545.979a3.584 3.584 0 0 0-3.573 3.572c0 1.11.593 2.074 1.453 2.744v4.194c0 1.16.957 2.12 2.12 2.12 1.162 0 2.119-.96 2.119-2.12v-4.196c.86-.67 1.452-1.633 1.453-2.742a3.584 3.584 0 0 0-3.572-3.572z" overflow="visible" transform="translate(-266.078 -1518.615)"></path></g></svg>